<svg xmlns="http://www.w3.org/2000/svg" width="32" height="32" id="games">
  <g transform="translate(-174 156.907)">
    <path fill="#ff5855" fill-rule="evenodd" d="M193.003-149.401c-.081 6.793.544 12.497 2.026 17.958h-10.01c1.481-5.46 2.075-11.165 1.993-17.958z"></path>
    <path fill="#ed4343" fill-rule="evenodd" d="M193.003-149.401c-.081 6.793.544 12.497 2.026 17.958h-10.01c6.264-1.679 7.984-2.259 7.984-17.958z"></path>
    <path fill="none" stroke="#12141a" d="M193.003-149.401c-.081 6.793.544 12.497 2.026 17.958h-10.01c1.481-5.46 2.075-11.165 1.993-17.958z"></path>
    <path fill="#ff5855" fill-rule="evenodd" d="m187.18-149.535-1.053-2.354 4-1.831 3.73 1.831-1.069 2.417"></path>
    <path fill="#ff7a6c" fill-rule="evenodd" d="m187.457-149.535-1.052-2.354 3.873-1.474c-1.627 1.627-2.26 1.737-2.82 3.828z"></path>
    <path fill="#1b1e34" stroke="#12141a" stroke-linecap="round" d="M182.625-128.404c-.901 0-1.625.615-1.625 1.38v.235l.002.026H181v1.353h18v-1.353h-.002l.002-.026v-.236c0-.764-.724-1.379-1.625-1.379h-14.75z" color="#000" overflow="visible" style="isolation:auto;mix-blend-mode:normal"></path>
    <rect width="5" height="1" x="187.5" y="-146.889" fill="#ed4343" rx="0" ry="0"></rect>
    <path fill="#ff7a6c" fill-rule="evenodd" stroke="#ff7a6c" d="M186.123-131.443c1.482-5.46 1.949-11.165 1.867-17.958" opacity=".421"></path>
    <rect width="10" height="2" x="185" y="-149.404" fill="#ff785e" stroke="#12141a" rx="1.13" ry="1"></rect>
    <path fill="none" stroke="#12141a" d="M190.09-153.889v-3.015m-1.5 1.524h3"></path>
    <path fill="#2e303e" fill-rule="evenodd" d="M184.103-127.916h2c-.33.365-.446.717-.46 1.059-.013.334.014.5.014.94h-2.073c0-.578-.014-.68-.005-1.02.009-.327.185-.653.524-.98z"></path>
    <rect width="13.832" height="3" x="183.118" y="-131.404" fill="#ff785e" stroke="#12141a" rx="1.5" ry="1.5"></rect>
    <path fill="#fff" fill-rule="evenodd" d="M185.088-130.904h2c-.642.711-.586 1.374 0 2h-2c-.706-.666-.693-1.333 0-2zm2.424-18h1c-.32.356-.293.687 0 1h-1c-.352-.333-.346-.666 0-1z" opacity=".11"></path>
    <path fill="none" stroke="#12141a" d="m187.18-149.535-1.053-2.354 4-1.831 3.73 1.831-1.069 2.417"></path>
    <path fill="#fff" fill-rule="evenodd" d="M187.805-130.904h.713c-.642.711-.586 1.374 0 2h-.713c-.706-.666-.693-1.333 0-2z" opacity=".11"></path>
    <path fill="#24273b" fill-rule="evenodd" d="M186.852-127.916h.776c-.33.365-.446.717-.46 1.059-.013.334.014.5.014.94h-.85c0-.578-.013-.68-.004-1.02.009-.327.185-.653.524-.98z"></path>
    <path fill="#ed4343" fill-rule="evenodd" d="M195.176-130.904h-1.101c.642.711.586 1.374 0 2h1.101c.706-.666.693-1.333 0-2z"></path>
    <path fill="#16192b" fill-rule="evenodd" d="M196.79-127.916h-1.372c.33.365.447.717.46 1.059.013.334-.014.5-.014.94h1.444c0-.578.014-.68.005-1.02-.009-.327-.185-.653-.524-.98z"></path>
    <path fill="#fff" fill-rule="evenodd" d="M187.288-149.2c-.146.146-.612.306-.612.306s.468.163.612.307c.143.143.306.606.306.606s.162-.463.306-.606c.144-.144.612-.307.612-.307s-.466-.16-.612-.306c-.146-.146-.306-.626-.306-.626s-.16.48-.306.626z" color="#000" font-family="sans-serif" font-weight="400" overflow="visible" style="line-height:normal;text-indent:0;text-align:start;text-decoration-line:none;text-decoration-style:solid;text-decoration-color:#000;text-transform:none;block-progression:tb;isolation:auto;mix-blend-mode:normal"></path>
    <path fill="#ed4343" fill-rule="evenodd" d="M193.012-148.904h-1c.321.356.293.687 0 1h1c.353-.333.347-.666 0-1z"></path>
  </g>
</svg>
