<svg xmlns="http://www.w3.org/2000/svg" width="32" height="32" id="games">
  <g transform="translate(-194.949 156.908)">
    <rect width="6" height="3.5" x="207.949" y="-154.407" fill="#ff5855" stroke="#12141a" rx="1.742" ry="1.75"></rect>
    <path fill="#ff5855" fill-rule="evenodd" d="M213.952-150.5c-.082 6.792.544 13.596 2.025 19.057h-10.01c1.482-5.46 2.075-12.265 1.994-19.058z"></path>
    <path fill="#ed4343" fill-rule="evenodd" d="M213.952-149.401c-.082 6.793.544 12.497 2.025 17.958h-10.01c6.265-1.679 7.985-2.259 7.985-17.958z"></path>
    <path fill="#1b1e34" stroke="#12141a" stroke-linecap="round" d="M203.574-128.404c-.902 0-1.625.615-1.625 1.38v.235l.002.026h-.002v1.353h18v-1.353h-.002l.002-.026v-.236c0-.764-.724-1.379-1.626-1.379h-14.749z" color="#000" overflow="visible" style="isolation:auto;mix-blend-mode:normal"></path>
    <rect width="5.629" height="1" x="208.134" y="-144.907" fill="#ed4343" rx="0" ry="0"></rect>
    <path fill="none" stroke="#ff7a6c" d="M206.99-131.443c1.482-5.46 1.957-11.464 1.867-18.958" opacity=".421"></path>
    <path fill="#2e303e" fill-rule="evenodd" d="M205.051-127.916h2c-.33.365-.446.717-.46 1.059-.013.334.014.5.014.94h-2.073c0-.578-.014-.68-.005-1.02.01-.327.185-.653.524-.98z"></path>
    <rect width="13.832" height="3" x="204.066" y="-131.404" fill="#ff785e" stroke="#12141a" rx="1.5" ry="1.5"></rect>
    <path fill="#fff" fill-rule="evenodd" d="M206.037-130.904h2c-.642.711-.587 1.374 0 2h-2c-.706-.666-.693-1.333 0-2zm2.717 0h.712c-.641.711-.586 1.374 0 2h-.712c-.706-.666-.693-1.333 0-2z" opacity=".109"></path>
    <path fill="#24273b" fill-rule="evenodd" d="M207.8-127.916h.777c-.33.365-.446.717-.46 1.059-.013.334.014.5.014.94h-.85c0-.578-.014-.68-.005-1.02.01-.327.185-.653.524-.98z"></path>
    <path fill="#ed4343" fill-rule="evenodd" d="M216.124-130.904h-1.1c.641.711.586 1.374 0 2h1.1c.706-.666.693-1.333 0-2z"></path>
    <path fill="#16192b" fill-rule="evenodd" d="M217.738-127.916h-1.371c.33.365.446.717.46 1.059.013.334-.014.5-.014.94h1.444c0-.578.014-.68.005-1.02-.01-.327-.185-.653-.524-.98z"></path>
    <circle cx="210.962" cy="-155.406" r="1.001" fill="#ff5855" stroke="#12141a" stroke-linecap="round" stroke-linejoin="round"></circle>
    <rect width="10" height="2" x="205.949" y="-152.407" fill="#ff785e" stroke="#12141a" rx="1.13" ry="1"></rect>
    <path fill="#fff" fill-rule="evenodd" d="M208.46-151.907h1c-.32.356-.292.687 0 1h-1c-.352-.333-.345-.666 0-1z" opacity=".11"></path>
    <path fill="none" stroke="#12141a" d="M213.952-150.6c0 7.693.544 13.696 2.025 19.157h-10.01c1.482-5.46 2.086-11.464 1.994-19.158"></path>
    <rect width="10" height="2" x="205.949" y="-147.422" fill="#ff785e" stroke="#12141a" rx="1.13" ry="1"></rect>
    <path fill="#fff" fill-rule="evenodd" d="M208.46-146.922h1c-.32.356-.292.687 0 1h-1c-.352-.333-.345-.666 0-1z" opacity=".11"></path>
    <path fill="#ff5855" fill-rule="evenodd" d="M206.949-150.407h8c-.5.5-.5 2.5 0 3h-8c.5-.5.5-2.5 0-3z"></path>
    <rect width="7" height="1" x="207.449" y="-149.895" fill="#ed4343" rx="0" ry="0"></rect>
    <path fill="#febb46" fill-rule="evenodd" stroke="#ff7a6c" d="M208.802-147.407c.5-.5.5-2.5 0-3" opacity=".421"></path>
    <path fill="none" stroke="#12141a" d="M206.949-150.407h8c-.5.5-.5 2.5 0 3h-8c.5-.5.5-2.5 0-3z"></path>
    <path fill="#ff7a6c" fill-rule="evenodd" d="M210.442-152.907h-.977c0-.374.308-1 1.484-1-.598.16-.507.526-.507 1z"></path>
    <path fill="#ed4343" fill-rule="evenodd" d="M214.186-151.907h-1c.321.356.294.687 0 1h1c.353-.333.347-.666 0-1zm0 4.985h-1c.321.356.294.687 0 1h1c.353-.333.347-.666 0-1z"></path>
    <path fill="#fff" fill-rule="evenodd" d="M207.939-152.222c-.146.146-.612.306-.612.306s.468.162.612.306c.143.143.306.606.306.606s.162-.463.306-.606c.144-.144.612-.306.612-.306s-.466-.16-.612-.306c-.146-.146-.306-.627-.306-.627s-.16.48-.306.627z" color="#000" font-family="sans-serif" font-weight="400" overflow="visible" style="line-height:normal;text-indent:0;text-align:start;text-decoration-line:none;text-decoration-style:solid;text-decoration-color:#000;text-transform:none;block-progression:tb;isolation:auto;mix-blend-mode:normal"></path>
  </g>
</svg>
